<?xml version="1.0" encoding="UTF-8" standalone="no" ?>
<!DOCTYPE svg PUBLIC "-//W3C//DTD SVG 1.1//EN" "http://www.w3.org/Graphics/SVG/1.1/DTD/svg11.dtd">
<svg xmlns="http://www.w3.org/2000/svg" xmlns:xlink="http://www.w3.org/1999/xlink" version="1.1" width="500" height="500" viewBox="0 0 500 500" xml:space="preserve">
<desc>Created with Fabric.js 5.3.0</desc>
<defs>
</defs>
<g transform="matrix(1 0 0 1 249.3045 240.8762293423)" id="lsGSUtatObipfZtuoqK1w"  >
<path style="stroke: rgb(255,243,18); stroke-width: 1; stroke-dasharray: none; stroke-linecap: butt; stroke-dashoffset: 0; stroke-linejoin: miter; stroke-miterlimit: 4; fill: rgb(255,255,255); fill-opacity: 0; fill-rule: nonzero; opacity: 1;" vector-effect="non-scaling-stroke"  transform=" translate(0.000005, -0.000005)" d="M -179.07615 -72.38373 C -178.71300000000002 -71.79603 -178.57217 -71.09777 -178.67913000000001 -70.41525 L -178.77792000000002 -69.78487 L -178.77792000000002 -69.78487 C -178.93621000000002 -68.77477999999999 -178.55160000000004 -67.75587 -177.76533000000003 -67.10233 L -173.75093000000004 -63.765609999999995 L -169.68712000000005 -57.18890999999999 L -169.68712000000005 -57.18890999999999 C -169.43700000000004 -56.784119999999994 -169.30451000000005 -56.317679999999996 -169.30451000000005 -55.841849999999994 L -169.30451000000005 -53.12855 L -167.13735000000005 -52.646249999999995 L -167.13735000000005 -52.646249999999995 C -166.57584000000006 -52.52128999999999 -166.08681000000004 -52.17872 -165.77752000000007 -51.69369 L -163.74995000000007 -48.513999999999996 L -165.23403000000008 -44.466339999999995 L -165.23403000000008 -44.466339999999995 C -165.26271000000008 -44.39359999999999 -165.2490200000001 -44.31097 -165.19841000000008 -44.25136 C -165.14780000000007 -44.19175 -165.06849000000008 -44.16484 -164.9920600000001 -44.181329999999996 L -164.0984500000001 -44.303869999999996 L -164.0984500000001 -44.303869999999996 C -162.4027100000001 -44.533829999999995 -160.7272200000001 -43.760979999999996 -159.8014100000001 -42.32178 L -156.8085100000001 -37.628229999999995 C -156.2378400000001 -37.628229999999995 -155.9168400000001 -37.59255999999999 -155.8455100000001 -37.521229999999996 L -155.8455100000001 -37.521229999999996 C -155.4175100000001 -37.09323 -154.6505100000001 -34.436229999999995 -153.54451000000012 -29.550229999999996 C -152.4391800000001 -24.663559999999997 -151.88651000000013 -20.829229999999995 -151.88651000000013 -18.047229999999995 L -151.88651000000013 -18.047229999999995 C -151.88651000000013 -17.476559999999996 -152.93851000000012 -16.460229999999996 -155.04251000000014 -14.998229999999996 C -157.14718000000013 -13.535559999999997 -158.87718000000012 -12.804229999999997 -160.23251000000013 -12.804229999999997 L -160.23251000000013 -12.804229999999997 C -160.37518000000014 -12.804229999999997 -160.62484000000012 -13.374899999999997 -160.98151000000013 -14.516229999999997 L -160.98151000000013 -14.516229999999997 C -162.19418000000013 -18.439559999999997 -163.79918000000012 -21.399899999999995 -165.79651000000013 -23.397229999999997 L -165.79651000000013 -23.397229999999997 C -168.36451000000014 -24.324559999999998 -170.25484000000012 -24.78823 -171.46751000000012 -24.78823 C -172.68018000000012 -24.78823 -173.41118000000012 -24.7349 -173.66051000000013 -24.62823 C -173.91051000000013 -24.520899999999997 -174.26718000000014 -24.25323 -174.73051000000012 -23.825229999999998 C -175.19451000000012 -23.397229999999997 -175.42651000000012 -22.826559999999997 -175.42651000000012 -22.113229999999998 L -175.42651000000012 -22.113229999999998 C -172.14518000000012 -20.615229999999997 -170.50451000000012 -19.61656 -170.50451000000012 -19.11723 L -170.50451000000012 -19.11723 C -170.86118000000013 -14.48056 -171.03951000000012 -9.91523 -171.03951000000012 -5.4212299999999995 L -171.03951000000012 -5.4212299999999995 C -172.7515100000001 -3.9945599999999994 -173.60751000000013 -3.0672299999999995 -173.60751000000013 -2.6392299999999995 L -173.60751000000013 -2.6392299999999995 C -173.60751000000013 -1.7118999999999995 -173.32218000000015 -0.9628999999999994 -172.75151000000014 -0.39222999999999963 C -172.18084000000013 0.17844000000000038 -171.61018000000013 0.5707700000000003 -171.03951000000015 0.7847700000000004 C -170.46884000000014 0.9987700000000004 -170.18351000000015 1.1414400000000005 -170.18351000000015 1.2127700000000003 L -170.18351000000015 1.2127700000000003 C -170.61151000000015 8.91677 -170.82551000000015 15.35444 -170.82551000000015 20.525769999999998 C -170.82551000000015 25.69777 -170.68284000000014 29.13977 -170.39751000000015 30.85177 L -170.39751000000015 30.85177 C -168.75684000000015 34.91777 -167.93651000000014 37.842439999999996 -167.93651000000014 39.625769999999996 L -167.93651000000014 39.625769999999996 C -167.93651000000014 40.196439999999996 -168.77451000000013 40.8741 -170.45051000000015 41.65877 C -172.12718000000015 42.443439999999995 -173.50051000000016 42.97844 -174.57051000000016 43.263769999999994 L -174.57051000000016 43.263769999999994 C -176.35384000000016 43.69176999999999 -177.92318000000014 44.583439999999996 -179.27851000000015 45.93876999999999 L -179.27851000000015 45.93876999999999 C -183.13051000000016 45.93876999999999 -186.32251000000016 45.76043999999999 -188.85451000000015 45.403769999999994 C -191.38718000000014 45.04709999999999 -192.97451000000015 44.690439999999995 -193.61651000000015 44.333769999999994 L -193.61651000000015 44.333769999999994 L -194.47251000000014 43.79877 L -192.65351000000015 37.27177 C -192.51084000000014 37.05777 -192.43951000000015 35.952099999999994 -192.43951000000015 33.954769999999996 L -192.43951000000015 33.954769999999996 L -192.54651000000015 25.82277 C -192.54651000000015 24.68144 -192.51084000000014 24.11077 -192.43951000000015 24.11077 L -192.43951000000015 24.11077 C -191.58351000000016 24.11077 -190.72751000000017 23.183439999999997 -189.87151000000014 21.32877 L -189.87151000000014 21.32877 C -189.87151000000014 20.972099999999998 -190.49551000000014 20.15177 -191.74351000000016 18.86777 C -192.99218000000016 17.58377 -193.61651000000015 16.7991 -193.61651000000015 16.51377 L -193.61651000000015 16.51377 L -192.01151000000016 13.410770000000001 C -191.86884000000015 12.840100000000001 -191.79751000000016 12.05544 -191.79751000000016 11.05677 L -191.79751000000016 11.05677 L -192.11851000000016 1.1057699999999997 C -192.11851000000016 -0.17823000000000033 -192.01151000000016 -0.9272300000000002 -191.79751000000016 -1.1412300000000002 C -191.58351000000016 -1.3552300000000002 -191.47651000000016 -1.6229000000000002 -191.47651000000016 -1.9442300000000001 C -191.47651000000016 -2.2649 -191.86884000000015 -2.83556 -192.65351000000015 -3.65623 C -193.43818000000016 -4.47623 -193.83051000000015 -5.20723 -193.83051000000015 -5.84923 L -193.83051000000015 -5.84923 L -192.11851000000016 -9.70123 C -191.83318000000017 -10.55723 -191.69051000000016 -13.303560000000001 -191.69051000000016 -17.94023 C -191.69051000000016 -22.5769 -191.76184000000015 -24.895229999999998 -191.90451000000016 -24.895229999999998 L -191.90451000000016 -24.895229999999998 C -193.90184000000016 -24.895229999999998 -195.79218000000014 -23.7719 -197.57551000000015 -21.525229999999997 C -199.35884000000016 -19.277899999999995 -200.64284000000015 -17.012899999999995 -201.42751000000015 -14.730229999999997 L -201.42751000000015 -14.730229999999997 L -202.60451000000015 -11.306229999999998 C -204.03118000000015 -11.306229999999998 -205.49351000000016 -11.698559999999997 -206.99151000000015 -12.483229999999997 C -208.48951000000014 -13.267899999999997 -209.63084000000015 -14.070559999999997 -210.41551000000015 -14.891229999999997 C -211.20018000000016 -15.711229999999997 -211.59251000000015 -16.317559999999997 -211.59251000000015 -16.710229999999996 C -211.59251000000015 -17.102229999999995 -210.86118000000013 -20.668899999999997 -209.39851000000016 -27.410229999999995 C -208.89949000000016 -29.711019999999994 -204.58627000000016 -31.623299999999993 -204.21602000000016 -33.14706999999999 C -203.50155000000015 -36.08751999999999 -206.90543000000017 -37.581239999999994 -206.67051000000015 -37.628229999999995 L -206.67051000000015 -37.628229999999995 L -200.11775000000014 -48.439519999999995 L -200.11775000000014 -48.439519999999995 C -199.85863000000015 -48.867039999999996 -199.41927000000015 -49.15364999999999 -198.92358000000013 -49.218509999999995 L -197.24543000000014 -49.43809999999999 L -197.24543000000014 -49.43809999999999 C -196.63579000000013 -49.517869999999995 -196.11419000000015 -49.91497999999999 -195.87504000000015 -50.48140999999999 C -195.63590000000016 -51.04783999999999 -195.71510000000015 -51.69859999999999 -196.08311000000015 -52.19113999999999 L -196.93990000000014 -53.337819999999994 L -196.93990000000014 -53.337819999999994 C -197.00963000000013 -53.431149999999995 -197.01575000000014 -53.55745999999999 -196.95537000000013 -53.65709 L -190.59499000000014 -64.15098 L -190.26077000000015 -67.71405 L -190.26077000000015 -67.71405 C -190.21792000000016 -68.17088 -189.98759000000015 -68.5895 -189.62464000000014 -68.87021 L -186.06688000000014 -71.62182 L -182.37211000000013 -77.71776 z M -157.6645 -0.07123 L -157.6645 -0.17823 L -158.4135 -1.8902299999999999 C -158.4135 -2.38956 -156.75483 -4.1552299999999995 -153.4375 -7.18723 C -150.12083 -10.21856 -148.0345 -11.91256 -147.17849999999999 -12.26923 L -147.17849999999999 -12.26923 C -141.75716999999997 -13.41056 -138.0835 -13.98123 -136.15749999999997 -13.98123 L -136.15749999999997 -13.98123 C -135.94349999999997 -13.98123 -134.98049999999998 -13.5889 -133.26849999999996 -12.80423 C -131.55649999999997 -12.01956 -130.52216999999996 -11.5739 -130.16549999999995 -11.46723 C -129.80882999999994 -11.359900000000001 -129.13116999999994 -10.68223 -128.13249999999996 -9.434230000000001 C -127.13382999999996 -8.18556 -126.63449999999996 -7.418560000000001 -126.63449999999996 -7.133230000000001 L -126.63449999999996 -7.133230000000001 C -126.99116999999995 -5.135900000000001 -127.31216999999997 -4.137230000000001 -127.59749999999995 -4.137230000000001 L -127.59749999999995 -4.137230000000001 C -132.09149999999994 -3.9232300000000007 -135.08749999999995 -3.3882300000000005 -136.58549999999997 -2.5322300000000006 L -136.58549999999997 -2.5322300000000006 C -137.29882999999998 -2.175560000000001 -138.70749999999998 -0.8382300000000007 -140.81149999999997 1.479769999999999 C -142.91616999999997 3.798439999999999 -144.27149999999997 5.581769999999999 -144.87749999999997 6.829769999999998 C -145.48416999999998 8.078439999999999 -145.78749999999997 12.055439999999997 -145.78749999999997 18.760769999999997 L -145.78749999999997 18.760769999999997 C -143.71882999999997 19.6881 -142.68449999999996 20.72244 -142.68449999999996 21.86377 L -142.68449999999996 21.86377 C -143.46916999999996 25.21644 -143.86149999999995 27.12444 -143.86149999999995 27.58777 C -143.86149999999995 28.051769999999998 -143.57616999999996 28.8901 -143.00549999999996 30.10277 C -142.43482999999995 31.31544 -141.86416999999994 32.2071 -141.29349999999997 32.77777 L -141.29349999999997 32.77777 C -140.22349999999997 33.34844 -139.34949999999998 33.63377 -138.67149999999998 33.63377 C -137.99416999999997 33.63377 -137.5485 33.52677 -137.3345 33.31277 L -137.3345 33.31277 C -135.6225 31.60077 -134.76649999999998 28.6761 -134.76649999999998 24.53877 L -134.76649999999998 24.53877 C -134.76649999999998 23.611439999999998 -134.83782999999997 22.64844 -134.98049999999998 21.64977 L -134.98049999999998 21.64977 C -136.26449999999997 20.4371 -136.90649999999997 19.08177 -136.90649999999997 17.58377 L -136.90649999999997 17.58377 C -136.90649999999997 17.369770000000003 -136.58549999999997 16.95944 -135.94349999999997 16.35277 C -135.30149999999998 15.74677 -134.98049999999998 15.0871 -134.98049999999998 14.37377 C -134.98049999999998 13.660440000000001 -135.26582999999997 12.875770000000001 -135.83649999999997 12.019770000000001 C -136.40716999999998 11.163770000000001 -136.97782999999998 10.503770000000001 -137.54849999999996 10.03977 C -138.11916999999997 9.576440000000002 -138.40449999999996 9.27344 -138.40449999999996 9.13077 L -138.40449999999996 9.13077 C -138.40449999999996 8.20344 -137.28082999999995 6.49144 -135.03349999999995 3.99477 C -132.78682999999995 1.4981 -131.19982999999993 0.24976999999999983 -130.27249999999995 0.24976999999999983 L -130.27249999999995 0.24976999999999983 L -128.77449999999996 0.24976999999999983 C -122.71116999999997 0.24976999999999983 -119.67949999999996 0.6420999999999999 -119.67949999999996 1.4267699999999999 L -119.67949999999996 1.4267699999999999 C -120.03616999999996 3.3527699999999996 -120.21449999999996 4.4584399999999995 -120.21449999999996 4.74377 C -120.21449999999996 5.0291 -119.57249999999996 6.38444 -118.28849999999996 8.80977 C -117.00449999999995 11.235100000000001 -116.36249999999995 13.55344 -116.36249999999995 15.76477 L -116.36249999999995 15.76477 C -118.21716999999995 17.26277 -119.14449999999995 18.35044 -119.14449999999995 19.02777 C -119.14449999999995 19.70577 -118.78782999999996 20.36577 -118.07449999999996 21.00777 C -117.36116999999996 21.64977 -117.00449999999996 22.00644 -117.00449999999996 22.07777 L -117.00449999999996 22.07777 C -117.00449999999996 22.71977 -117.28982999999997 24.1641 -117.86049999999996 26.41077 C -118.43116999999997 28.658099999999997 -118.71649999999995 30.388099999999998 -118.71649999999995 31.60077 C -118.71649999999995 32.81344 -120.42849999999996 35.13177 -123.85249999999995 38.55577 L -123.85249999999995 38.55577 C -127.13382999999995 41.69444 -129.30949999999996 43.26377 -130.37949999999995 43.26377 L -130.37949999999995 43.26377 L -130.48649999999995 43.26377 C -130.84316999999996 42.97844 -131.41382999999996 42.835770000000004 -132.19849999999994 42.835770000000004 L -132.19849999999994 42.835770000000004 L -133.37549999999993 42.94277 C -134.44549999999992 42.94277 -135.23016999999993 43.6561 -135.72949999999994 45.082770000000004 L -135.72949999999994 45.082770000000004 C -135.94349999999994 45.72477000000001 -136.17516999999995 46.170440000000006 -136.42449999999994 46.41977000000001 C -136.67449999999994 46.66977000000001 -137.54849999999993 46.79477000000001 -139.04649999999992 46.79477000000001 L -139.04649999999992 46.79477000000001 L -148.14149999999992 46.045770000000005 C -149.92482999999993 45.546440000000004 -151.93982999999992 44.33377 -154.1864999999999 42.407770000000006 C -156.43382999999992 40.481770000000004 -157.55749999999992 39.26910000000001 -157.55749999999992 38.76977000000001 L -157.55749999999992 38.76977000000001 C -157.55749999999992 38.698440000000005 -157.2008299999999 38.21677000000001 -156.48749999999993 37.32477000000001 C -155.7741699999999 36.433440000000004 -155.41749999999993 35.773770000000006 -155.41749999999993 35.34577000000001 L -155.41749999999993 35.34577000000001 C -155.41749999999993 34.63244000000001 -155.88116999999994 33.95477000000001 -156.80849999999992 33.31277000000001 L -156.80849999999992 33.31277000000001 L -160.55349999999993 33.847770000000004 C -160.91016999999994 33.847770000000004 -161.30249999999992 32.920440000000006 -161.73049999999992 31.065770000000004 L -161.73049999999992 31.065770000000004 C -162.80049999999991 27.071100000000005 -163.3354999999999 21.578440000000004 -163.3354999999999 14.587770000000003 L -163.3354999999999 14.587770000000003 C -163.3354999999999 13.589100000000002 -162.5151699999999 11.021100000000002 -160.8744999999999 6.883770000000003 C -159.2338299999999 2.7464400000000024 -158.1638299999999 0.42810000000000326 -157.6644999999999 -0.07122999999999724 z M -89.0235 3.13877 C -89.34483 3.13877 -90.23649999999999 4.0481 -91.6985 5.866770000000001 C -93.16117 7.686100000000001 -94.05283 8.89877 -94.37349999999999 9.50477 C -94.69483 10.11144 -94.85549999999999 12.305100000000001 -94.85549999999999 16.08577 L -94.85549999999999 16.08577 L -94.85549999999999 18.54677 C -94.85549999999999 18.90344 -94.5165 19.367099999999997 -93.8385 19.93777 C -93.16117 20.50844 -92.82249999999999 20.93644 -92.82249999999999 21.22177 L -92.82249999999999 21.22177 C -92.82249999999999 22.006439999999998 -93.53582999999999 23.112099999999998 -94.96249999999999 24.53877 L -94.96249999999999 24.53877 C -95.24783 24.824099999999998 -95.39049999999999 26.4291 -95.39049999999999 29.35377 C -95.39049999999999 32.27844 -95.24783 33.74077 -94.96249999999999 33.74077 L -94.96249999999999 33.74077 C -93.96382999999999 33.74077 -92.92949999999999 33.437439999999995 -91.8595 32.83077 C -90.7895 32.22477 -89.9335 31.60077 -89.2915 30.95877 L -89.2915 30.95877 L -88.4355 29.99577 C -88.07883000000001 29.6391 -87.68650000000001 28.7651 -87.2585 27.37377 C -86.8305 25.9831 -86.6165 25.0381 -86.6165 24.53877 L -86.6165 24.53877 L -87.79350000000001 19.50977 C -87.79350000000001 19.22444 -87.52583000000001 18.528769999999998 -86.99050000000001 17.42277 C -86.45583 16.31744 -86.1885 15.3901 -86.1885 14.64077 C -86.1885 13.8921 -86.5095 13.2501 -87.1515 12.71477 C -87.7935 12.1801 -88.11449999999999 11.69877 -88.11449999999999 11.270769999999999 L -88.11449999999999 11.270769999999999 L -86.50949999999999 4.743769999999999 C -86.50949999999999 4.3870999999999984 -86.84816999999998 4.030439999999999 -87.5255 3.6737699999999984 C -88.20349999999999 3.3170999999999986 -88.70282999999999 3.1387699999999983 -89.0235 3.1387699999999983 z M -110.5845 13.73177 L -110.5845 13.73177 C -110.5845 12.661769999999999 -111.5475 11.591769999999999 -113.4735 10.52177 L -113.4735 10.52177 C -113.33083 9.3091 -113.2595 7.4901 -113.2595 5.06477 L -113.2595 5.06477 C -113.2595 -1.2125599999999999 -113.86583 -5.635229999999999 -115.0785 -8.203230000000001 L -115.0785 -8.203230000000001 L -115.0785 -8.31023 C -115.0785 -8.809560000000001 -113.99050000000001 -9.968900000000001 -111.81450000000001 -11.78823 C -109.63917000000001 -13.6069 -108.08783000000001 -14.71256 -107.16050000000001 -15.10523 C -106.23317000000002 -15.49723 -104.20017000000001 -15.69323 -101.06150000000001 -15.69323 C -97.92283 -15.69323 -96.35350000000001 -15.4079 -96.35350000000001 -14.83723 L -96.35350000000001 -14.83723 L -96.35350000000001 -14.73023 C -97.06683000000001 -12.37623 -97.4235 -8.5599 -97.4235 -3.2812300000000008 L -97.4235 -3.2812300000000008 C -96.78150000000001 -2.4965600000000006 -96.28217000000001 -2.1042300000000007 -95.9255 -2.1042300000000007 L -95.9255 -2.1042300000000007 C -90.71817 -9.0949 -87.43683 -12.590230000000002 -86.0815 -12.590230000000002 L -86.0815 -12.590230000000002 C -84.29817 -12.590230000000002 -82.03317000000001 -12.358560000000002 -79.2865 -11.895230000000002 C -76.54050000000001 -11.431230000000001 -74.66817 -10.664230000000002 -73.6695 -9.594230000000001 L -73.6695 -9.594230000000001 C -73.6695 -8.59556 -73.70517 -7.846560000000001 -73.7765 -7.3472300000000015 L -73.7765 -7.3472300000000015 C -69.21117 -0.5705600000000013 -66.9285 4.351439999999998 -66.9285 7.4187699999999985 L -66.9285 7.4187699999999985 C -68.35517 12.554769999999998 -69.0685 17.869099999999996 -69.0685 23.36177 L -69.0685 23.36177 C -69.0685 23.6471 -69.76383 23.9681 -71.1545 24.32477 C -72.54583 24.681440000000002 -73.2415 25.07377 -73.2415 25.50177 L -73.2415 25.50177 C -73.2415 26.429100000000002 -72.83117 27.32077 -72.01050000000001 28.17677 C -71.19050000000001 29.032770000000003 -70.7805 29.567770000000003 -70.7805 29.78177 C -70.7805 29.99577 -71.1015 30.637770000000003 -71.7435 31.70777 L -71.7435 31.70777 C -73.74083 35.2031 -76.05917 38.27044 -78.6985 40.90977 L -78.6985 40.90977 C -79.83982999999999 41.97977 -82.7465 43.28144 -87.4185 44.81477 C -92.09116999999999 46.34877 -94.5165 47.222770000000004 -94.69449999999999 47.43677 C -94.87316999999999 47.65077 -94.96249999999999 48.72077 -94.96249999999999 50.646770000000004 L -94.96249999999999 50.646770000000004 L -94.85549999999999 54.28477 C -94.85549999999999 54.49877 -95.81849999999999 55.2121 -97.74449999999999 56.42477 L -97.74449999999999 56.42477 C -98.31517 56.99544 -98.60049999999998 57.566100000000006 -98.60049999999998 58.136770000000006 C -98.60049999999998 58.707440000000005 -98.49349999999998 59.1711 -98.27949999999998 59.527770000000004 C -98.06549999999999 59.884440000000005 -97.88716999999998 60.06277 -97.74449999999999 60.06277 L -97.74449999999999 60.06277 C -95.81849999999999 60.06277 -94.85549999999999 60.20544 -94.85549999999999 60.49077 L -94.85549999999999 60.49077 C -94.85549999999999 64.12877 -94.5345 66.7681 -93.8925 68.40877 L -93.8925 68.40877 C -93.8925 69.05077 -94.92683 70.58444 -96.99549999999999 73.00977 L -96.99549999999999 73.00977 L -97.95849999999999 74.29377000000001 C -98.24382999999999 74.57910000000001 -98.85016999999999 74.90010000000001 -99.77749999999999 75.25677 L -99.77749999999999 75.25677 C -102.20282999999999 76.1841 -103.4155 76.89744 -103.4155 77.39677 L -103.4155 77.39677 C -103.4155 77.61077 -104.43182999999999 77.71777 -106.4645 77.71777 C -108.49783000000001 77.71777 -110.70917 77.59277 -113.0985 77.34277 C -115.4885 77.09344 -116.6835 76.75477000000001 -116.6835 76.32677 L -116.6835 76.32677 C -116.6835 75.04276999999999 -116.1485 73.08109999999999 -115.07849999999999 70.44176999999999 C -114.0085 67.80243999999999 -113.47349999999999 66.39344 -113.47349999999999 66.21476999999999 C -113.47349999999999 66.03676999999999 -113.75882999999999 65.69809999999998 -114.32949999999998 65.19876999999998 C -114.90016999999999 64.69943999999998 -115.18549999999998 64.30709999999998 -115.18549999999998 64.02176999999998 L -115.18549999999998 64.02176999999998 L -115.18549999999998 63.80776999999998 C -113.97282999999997 61.02576999999998 -113.36649999999997 55.033769999999976 -113.36649999999997 45.83176999999998 L -113.36649999999997 45.83176999999998 L -113.36649999999997 40.80276999999998 C -113.36649999999997 39.44743999999998 -113.33082999999998 38.734099999999984 -113.25949999999997 38.66276999999998 L -113.25949999999997 38.66276999999998 C -112.33216999999998 38.30609999999998 -111.86849999999997 37.16476999999998 -111.86849999999997 35.23876999999998 L -111.86849999999997 35.23876999999998 C -111.86849999999997 34.810769999999984 -112.15382999999997 32.10009999999998 -112.72449999999996 27.106769999999983 C -113.29516999999997 22.113439999999983 -113.58049999999996 18.618099999999984 -113.58049999999996 16.620769999999983 L -113.58049999999996 16.620769999999983 C -113.58049999999996 16.549439999999983 -113.08116999999996 16.19276999999998 -112.08249999999995 15.550769999999982 C -111.08382999999995 14.908769999999983 -110.58449999999995 14.302439999999983 -110.58449999999995 13.731769999999983 z M -20.2765 20.04477 L -20.2765 20.04477 L -20.1695 18.11877 C -20.1695 17.5481 -20.31217 17.26277 -20.5975 17.26277 L -20.5975 17.26277 C -22.45217 17.26277 -23.77183 17.58377 -24.5565 18.22577 C -25.341169999999998 18.86777 -25.8405 19.18877 -26.0545 19.18877 C -26.2685 19.18877 -26.87483 19.117440000000002 -27.8735 18.974770000000003 C -28.87217 18.832100000000004 -29.3715 18.689440000000005 -29.3715 18.546770000000002 L -29.3715 18.546770000000002 L -29.692500000000003 17.369770000000003 C -30.191830000000003 16.870440000000002 -31.636170000000003 16.602770000000003 -34.0255 16.56677 C -36.4155 16.531440000000003 -37.788830000000004 16.335440000000002 -38.1455 15.978770000000003 L -38.1455 15.978770000000003 C -39.286829999999995 14.908770000000002 -39.8575 13.054100000000002 -39.8575 10.414770000000003 C -39.8575 7.775440000000002 -39.39383 4.494100000000002 -38.4665 0.5707700000000031 C -37.539170000000006 -3.352559999999997 -36.73650000000001 -5.670899999999997 -36.0585 -6.384229999999997 C -35.381170000000004 -7.097559999999997 -33.366170000000004 -8.131899999999996 -30.0135 -9.487229999999997 C -26.66083 -10.842559999999997 -24.94883 -11.555899999999998 -24.8775 -11.627229999999997 L -24.8775 -11.627229999999997 C -24.0215 -12.768559999999997 -23.41517 -13.517559999999998 -23.058500000000002 -13.874229999999997 L -23.058500000000002 -13.874229999999997 C -18.921170000000004 -15.015559999999997 -15.318830000000002 -15.586229999999997 -12.251500000000002 -15.586229999999997 L -12.251500000000002 -15.586229999999997 C -8.399500000000002 -15.300899999999997 -6.2951700000000015 -15.158229999999996 -5.938500000000002 -15.158229999999996 L -5.938500000000002 -15.158229999999996 C -5.724500000000002 -15.158229999999996 -5.1895000000000024 -14.516229999999997 -4.333500000000003 -13.232229999999996 L -4.333500000000003 -13.232229999999996 C -1.9795000000000025 -9.522899999999996 -0.8025000000000024 -6.562559999999996 -0.8025000000000024 -4.351229999999996 L -0.8025000000000024 -4.351229999999996 C -0.8025000000000024 -3.994559999999996 -1.2481700000000024 -3.2278999999999956 -2.1395000000000026 -2.051229999999996 C -3.0315000000000025 -0.8738999999999959 -3.584500000000003 -0.2852299999999959 -3.7985000000000024 -0.2852299999999959 L -3.7985000000000024 -0.2852299999999959 L -4.7615000000000025 -1.034229999999996 C -6.758830000000002 -2.3182299999999962 -9.112830000000002 -2.9602299999999957 -11.823500000000003 -2.9602299999999957 L -11.823500000000003 -2.9602299999999957 C -13.107500000000003 -2.9602299999999957 -15.158170000000002 -2.086559999999996 -17.975500000000004 -0.3392299999999957 C -20.793500000000005 1.4087700000000043 -22.202500000000004 3.0317700000000043 -22.202500000000004 4.5297700000000045 L -22.202500000000004 4.5297700000000045 C -21.845830000000003 6.313100000000005 -21.310830000000003 7.204770000000004 -20.597500000000004 7.204770000000004 L -20.597500000000004 7.204770000000004 C -18.172170000000005 5.421440000000004 -16.513500000000004 4.5297700000000045 -15.621500000000005 4.5297700000000045 C -14.730170000000005 4.5297700000000045 -12.911170000000006 4.922100000000005 -10.164500000000004 5.706770000000004 C -7.418500000000003 6.491440000000004 -5.831500000000004 7.097770000000004 -5.403500000000004 7.525770000000004 L -5.403500000000004 7.525770000000004 C 0.4458299999999964 13.375100000000003 3.3704999999999954 17.209100000000003 3.3704999999999954 19.027770000000004 C 3.3704999999999954 20.847100000000005 2.9248299999999956 23.557770000000005 2.0334999999999956 27.15977 C 1.1414999999999957 30.76244 0.4814999999999956 32.563770000000005 0.05349999999999566 32.563770000000005 L 0.05349999999999566 32.563770000000005 L -0.053500000000004336 32.563770000000005 C -1.6941700000000044 32.563770000000005 -3.0138300000000044 33.09877 -4.012500000000005 34.16877 L -4.012500000000005 34.16877 C -4.297830000000005 34.454100000000004 -4.4405000000000046 34.82844 -4.4405000000000046 35.29177 C -4.4405000000000046 35.75577 -4.137170000000005 36.30877 -3.5305000000000044 36.95077 C -2.9245000000000045 37.59277 -2.6215000000000046 37.949439999999996 -2.6215000000000046 38.02077 L -2.6215000000000046 38.02077 C -2.7641700000000045 39.23344 -4.779170000000004 40.9631 -8.666500000000005 43.20977 C -12.554500000000004 45.4571 -15.711170000000005 46.58077 -18.136500000000005 46.58077 L -18.136500000000005 46.58077 C -18.421830000000003 46.58077 -18.796170000000004 46.29544 -19.259500000000006 45.72477 C -19.723500000000005 45.1541 -20.294170000000005 44.86877 -20.971500000000006 44.86877 C -21.649500000000007 44.86877 -22.452170000000006 45.189769999999996 -23.379500000000007 45.83177 L -23.379500000000007 45.83177 L -24.770500000000006 46.68777 C -27.837830000000004 46.68777 -30.601830000000007 46.17044 -33.06250000000001 45.13577 C -35.523830000000004 44.10177 -37.075500000000005 43.19244 -37.71750000000001 42.40777 L -37.71750000000001 42.40777 C -38.50217000000001 41.69444 -39.197500000000005 40.6601 -39.80350000000001 39.30477 C -40.41017000000001 37.949439999999996 -40.7135 36.915099999999995 -40.7135 36.201769999999996 L -40.7135 36.201769999999996 L -39.6435 34.91777 C -37.432170000000006 32.421099999999996 -36.3265 30.102769999999996 -36.3265 27.96277 L -36.3265 27.96277 C -36.3265 27.74877 -35.86283 27.3921 -34.935500000000005 26.89277 C -34.00817000000001 26.39344 -33.45517 26.14377 -33.276500000000006 26.14377 C -33.09850000000001 26.14377 -32.65283000000001 26.5361 -31.939500000000006 27.32077 L -31.939500000000006 27.32077 C -29.870830000000005 29.7461 -27.659500000000005 30.95877 -25.305500000000006 30.95877 L -25.305500000000006 30.95877 C -24.663500000000006 30.95877 -23.967830000000006 30.7981 -23.218500000000006 30.476770000000002 C -22.469830000000005 30.156100000000002 -21.810170000000006 29.99577 -21.239500000000007 29.99577 L -21.239500000000007 29.99577 C -19.598830000000007 29.99577 -18.136500000000005 29.49644 -16.852500000000006 28.49777 L -16.852500000000006 28.49777 C -15.639830000000007 27.2851 -14.890830000000006 25.60877 -14.605500000000006 23.46877 L -14.605500000000006 23.46877 C -14.605500000000006 22.75544 -15.318830000000005 22.07777 -16.745500000000007 21.435769999999998 C -18.17217000000001 20.79377 -19.31350000000001 20.472769999999997 -20.169500000000006 20.472769999999997 L -20.169500000000006 20.472769999999997 C -20.240830000000006 20.472769999999997 -20.276500000000006 20.330099999999998 -20.276500000000006 20.044769999999996 z M 27.7665 7.41877 L 27.7665 7.41877 L 27.4455 18.22577 C 27.4455 20.57977 27.5525 22.1491 27.7665 22.933770000000003 L 27.7665 22.933770000000003 C 27.7665 23.14777 27.2315 23.68277 26.1615 24.538770000000003 C 25.0915 25.394770000000005 24.5565 26.036770000000004 24.5565 26.46477 L 24.5565 26.46477 L 24.5565 27.10677 C 24.5565 28.10544 24.841829999999998 28.604770000000002 25.4125 28.604770000000002 L 25.4125 28.604770000000002 C 26.6965 28.10544 27.53483 27.855770000000003 27.927500000000002 27.855770000000003 C 28.3195 27.855770000000003 28.515500000000003 27.927100000000003 28.515500000000003 28.069770000000002 L 28.515500000000003 28.069770000000002 C 28.872170000000004 33.20577 29.478500000000004 36.20177 30.334500000000002 37.057770000000005 L 30.334500000000002 37.057770000000005 C 32.688500000000005 38.627100000000006 33.865500000000004 40.018100000000004 33.865500000000004 41.23077000000001 L 33.865500000000004 41.23077000000001 C 33.865500000000004 41.51610000000001 33.2235 42.229440000000004 31.939500000000006 43.37077000000001 C 30.655500000000007 44.512100000000004 29.621170000000006 45.29677000000001 28.836500000000004 45.72477000000001 L 28.836500000000004 45.72477000000001 C 27.267170000000004 46.509440000000005 24.520830000000004 47.18710000000001 20.597500000000004 47.75777000000001 L 20.597500000000004 47.75777000000001 L 18.564500000000002 47.97177000000001 C 18.350500000000004 47.97177000000001 17.458830000000003 47.561440000000005 15.889500000000002 46.740770000000005 C 14.320170000000001 45.920770000000005 13.232500000000002 45.51077000000001 12.626500000000002 45.51077000000001 C 12.019830000000002 45.51077000000001 11.092500000000001 44.81510000000001 9.844500000000002 43.423770000000005 C 8.595830000000001 42.033100000000005 7.971500000000002 41.01677000000001 7.971500000000002 40.374770000000005 L 7.971500000000002 40.374770000000005 L 7.971500000000002 40.16077000000001 C 8.827500000000002 38.591440000000006 9.255500000000001 33.134440000000005 9.255500000000001 23.789770000000008 L 9.255500000000001 23.789770000000008 L 9.255500000000001 22.077770000000008 C 9.255500000000001 21.93510000000001 9.630170000000001 21.578440000000008 10.379500000000002 21.007770000000008 C 11.128170000000003 20.437100000000008 11.502500000000001 19.83077000000001 11.502500000000001 19.18877000000001 C 11.502500000000001 18.54677000000001 11.2885 18.08310000000001 10.860500000000002 17.797770000000007 C 10.432500000000001 17.51244000000001 10.004500000000002 17.262770000000007 9.576500000000001 17.048770000000008 C 9.1485 16.83477000000001 8.934500000000002 16.656440000000007 8.934500000000002 16.513770000000008 L 8.934500000000002 16.513770000000008 C 9.433830000000002 14.516440000000008 9.683500000000002 11.71644000000001 9.683500000000002 8.113770000000008 C 9.683500000000002 4.511770000000007 9.612170000000003 2.6394400000000076 9.469500000000002 2.4967700000000077 C 9.326830000000001 2.354100000000008 8.916830000000001 2.2827700000000077 8.239500000000001 2.2827700000000077 C 7.561500000000001 2.2827700000000077 7.044170000000001 2.3361000000000076 6.687500000000002 2.442770000000008 C 6.3308300000000015 2.550100000000008 6.063500000000002 2.657100000000008 5.885500000000002 2.763770000000008 C 5.706830000000002 2.871100000000008 5.581830000000002 2.960440000000008 5.510500000000002 3.031770000000008 C 5.4391700000000025 3.103100000000008 5.260830000000002 3.138770000000008 4.975500000000002 3.138770000000008 C 4.690170000000002 3.138770000000008 4.2088300000000025 2.817770000000008 3.531500000000002 2.175770000000008 C 2.853500000000002 1.533770000000008 2.514500000000002 1.105770000000008 2.514500000000002 0.891770000000008 L 2.514500000000002 0.891770000000008 C 2.514500000000002 0.03577000000000796 3.0495000000000023 -1.9972299999999918 4.119500000000002 -5.207229999999992 C 5.1895000000000024 -8.417229999999993 5.831500000000002 -10.129229999999993 6.045500000000002 -10.343229999999991 C 6.259500000000003 -10.557229999999992 6.651830000000002 -10.664229999999991 7.222500000000002 -10.664229999999991 L 7.222500000000002 -10.664229999999991 L 9.362500000000002 -10.557229999999992 C 9.790500000000003 -10.557229999999992 10.075830000000003 -10.628559999999991 10.218500000000002 -10.771229999999992 C 10.361170000000003 -10.913899999999993 10.432500000000003 -11.876899999999992 10.432500000000003 -13.660229999999991 L 10.432500000000003 -13.660229999999991 C 10.432500000000003 -17.51222999999999 10.004500000000002 -21.00755999999999 9.148500000000002 -24.146229999999992 L 9.148500000000002 -24.146229999999992 L 8.613500000000002 -25.751229999999993 C 8.613500000000002 -26.46455999999999 10.200830000000002 -27.855559999999993 13.375500000000002 -29.924229999999994 C 16.549500000000002 -31.992899999999995 18.814170000000004 -33.027229999999996 20.169500000000003 -33.027229999999996 L 20.169500000000003 -33.027229999999996 C 25.234170000000002 -32.88455999999999 27.980500000000003 -32.59923 28.408500000000004 -32.171229999999994 L 28.408500000000004 -32.171229999999994 C 28.479830000000003 -32.09989999999999 28.515500000000003 -31.885899999999996 28.515500000000003 -31.529229999999995 L 28.515500000000003 -31.529229999999995 L 26.4825 -16.656229999999994 C 26.55383 -13.731559999999995 26.803500000000003 -12.055229999999995 27.2315 -11.627229999999994 L 27.2315 -11.627229999999994 C 27.73083 -11.341899999999994 28.5155 -11.199229999999993 29.5855 -11.199229999999993 C 30.6555 -11.199229999999993 32.33183 -11.948229999999993 34.6145 -13.446229999999993 L 34.6145 -13.446229999999993 C 34.89983 -13.446229999999993 35.3815 -12.946899999999992 36.0595 -11.948229999999993 C 36.73683 -10.949559999999993 37.0755 -10.164899999999994 37.0755 -9.594229999999992 C 37.0755 -9.023559999999993 36.433499999999995 -7.472229999999993 35.149499999999996 -4.940229999999993 C 33.8655 -2.4075599999999926 32.438829999999996 -0.39222999999999253 30.869499999999995 1.1057700000000077 L 30.869499999999995 1.1057700000000077 C 30.798169999999995 1.1771000000000078 30.298829999999995 1.2127700000000077 29.371499999999994 1.2127700000000077 L 29.371499999999994 1.2127700000000077 L 26.696499999999993 1.2127700000000077 C 24.556499999999993 1.2127700000000077 23.486499999999992 1.4267700000000076 23.486499999999992 1.8547700000000078 L 23.486499999999992 1.8547700000000078 C 23.486499999999992 3.138770000000008 23.78982999999999 4.030440000000008 24.396499999999993 4.529770000000008 C 25.002499999999994 5.029100000000008 25.662169999999993 5.278770000000008 26.37549999999999 5.278770000000008 C 27.08882999999999 5.278770000000008 27.499169999999992 5.332100000000008 27.606499999999993 5.438770000000008 C 27.713169999999995 5.546100000000008 27.766499999999994 6.206100000000008 27.766499999999994 7.418770000000007 z M 85.2255 3.88777 L 85.2255 3.88777 L 84.9045 12.01977 C 84.9045 14.4451 85.08283 16.2641 85.4395 17.47677 L 85.4395 17.47677 L 85.4395 17.583769999999998 C 85.4395 17.726439999999997 84.9225 18.190099999999997 83.8885 18.97477 C 82.85382999999999 19.759439999999998 82.33649999999999 20.5261 82.33649999999999 21.27477 C 82.33649999999999 22.0241 82.78249999999998 22.63044 83.67449999999998 23.09377 C 84.56582999999998 23.557769999999998 85.01149999999998 23.93244 85.01149999999998 24.217769999999998 L 85.01149999999998 24.217769999999998 L 85.01149999999998 27.534769999999998 C 85.01149999999998 32.7421 85.18982999999999 35.9521 85.54649999999998 37.16477 L 85.54649999999998 37.16477 C 87.04449999999999 40.6601 87.79349999999998 42.942769999999996 87.79349999999998 44.012769999999996 L 87.79349999999998 44.012769999999996 C 87.79349999999998 44.226769999999995 87.43682999999999 44.44076999999999 86.72349999999999 44.65477 L 86.72349999999999 44.65477 C 84.29816999999998 45.43944 82.83582999999999 46.08144 82.33649999999999 46.58077 C 81.83716999999999 47.0801 81.03482999999999 47.5971 79.92949999999999 48.13177 C 78.8235 48.667100000000005 77.77116999999998 48.93477 76.7725 48.93477 C 75.77382999999999 48.93477 74.4185 48.50677 72.70649999999999 47.65077 C 70.99449999999999 46.79477 69.65717 45.920770000000005 68.69449999999999 45.02877 C 67.73116999999999 44.13744 67.2495 43.51344 67.2495 43.15677 C 67.2495 42.8001 67.6775 41.7301 68.5335 39.94677 C 69.3895 38.16344 69.81750000000001 37.1291 69.81750000000001 36.84377 L 69.81750000000001 36.84377 C 69.81750000000001 36.34444 69.13983 36.09477 67.78450000000001 36.09477 L 67.78450000000001 36.09477 L 67.57050000000001 36.09477 C 66.35783 36.09477 64.78850000000001 37.842439999999996 62.86250000000001 41.33777 L 62.86250000000001 41.33777 L 61.89950000000001 43.15677 C 61.68550000000001 43.798770000000005 60.20550000000001 44.405100000000004 57.45950000000001 44.975770000000004 C 54.71283000000001 45.546440000000004 52.840170000000015 45.831770000000006 51.84150000000001 45.831770000000006 C 50.84283000000001 45.831770000000006 50.30783000000001 45.7961 50.236500000000014 45.72477000000001 L 50.236500000000014 45.72477000000001 C 49.309170000000016 44.512100000000004 47.81117000000001 43.691770000000005 45.742500000000014 43.26377000000001 L 45.742500000000014 43.26377000000001 L 44.672500000000014 43.04977000000001 C 44.38717000000001 43.04977000000001 43.70950000000001 42.282770000000006 42.63950000000001 40.74877000000001 C 41.56950000000001 39.21544000000001 40.71350000000001 37.87810000000001 40.071500000000015 36.73677000000001 L 40.071500000000015 36.73677000000001 C 39.78617000000001 36.16610000000001 39.64350000000002 32.74210000000001 39.64350000000002 26.46477000000001 L 39.64350000000002 26.46477000000001 C 39.64350000000002 26.39344000000001 40.071500000000015 26.001100000000008 40.927500000000016 25.28777000000001 C 41.78350000000002 24.57444000000001 42.211500000000015 23.91444000000001 42.211500000000015 23.30777000000001 C 42.211500000000015 22.701770000000007 41.765830000000015 22.113440000000008 40.87450000000001 21.542770000000008 C 39.98250000000001 20.972100000000008 39.53650000000001 20.579770000000007 39.53650000000001 20.36577000000001 L 39.53650000000001 20.36577000000001 L 39.53650000000001 20.15177000000001 C 40.178500000000014 18.86777000000001 40.49950000000001 16.47810000000001 40.49950000000001 12.98277000000001 L 40.49950000000001 12.98277000000001 L 40.071500000000015 5.2787700000000095 L 41.46250000000001 3.3527700000000094 C 40.24983000000001 -2.2825599999999904 39.64350000000001 -5.5995599999999905 39.64350000000001 -6.598229999999991 L 39.64350000000001 -6.598229999999991 C 39.64350000000001 -7.026229999999991 41.10583000000001 -8.167559999999991 44.03050000000001 -10.022229999999992 C 46.95517000000001 -11.876899999999992 48.95250000000001 -12.804229999999992 50.02250000000001 -12.804229999999992 L 50.02250000000001 -12.804229999999992 C 56.585170000000005 -12.447559999999992 59.86650000000001 -11.841229999999992 59.86650000000001 -10.98522999999999 L 59.86650000000001 -10.98522999999999 C 59.01050000000001 -3.709229999999991 58.58250000000001 1.17710000000001 58.58250000000001 3.67377000000001 C 58.58250000000001 6.17044000000001 58.61817000000001 7.63277000000001 58.68950000000001 8.060770000000009 L 58.68950000000001 8.060770000000009 C 58.68950000000001 8.20344000000001 58.17250000000001 8.720440000000009 57.13850000000001 9.611770000000009 C 56.10383000000001 10.503770000000008 55.58650000000001 11.199440000000008 55.58650000000001 11.698770000000009 L 55.58650000000001 11.698770000000009 L 55.47950000000001 12.554770000000008 C 55.47950000000001 12.840100000000009 55.55083000000001 13.054100000000009 55.69350000000001 13.196770000000008 L 55.69350000000001 13.196770000000008 L 57.084500000000006 13.624770000000009 C 58.01183 13.910100000000009 58.475500000000004 14.37377000000001 58.475500000000004 15.015770000000009 L 58.475500000000004 15.015770000000009 L 58.475500000000004 15.44377000000001 C 58.40417 15.87177000000001 58.368500000000004 16.69210000000001 58.368500000000004 17.90477000000001 L 58.368500000000004 17.90477000000001 L 58.368500000000004 21.00777000000001 C 58.368500000000004 23.78977000000001 58.01183 25.50177000000001 57.298500000000004 26.14377000000001 L 57.298500000000004 26.14377000000001 C 58.154500000000006 27.78444000000001 58.992830000000005 28.60477000000001 59.813500000000005 28.60477000000001 C 60.633500000000005 28.60477000000001 61.95317000000001 27.57044000000001 63.77250000000001 25.501770000000008 C 65.59117 23.433100000000007 66.5005 21.86377000000001 66.5005 20.79377000000001 L 66.5005 20.79377000000001 L 66.5005 19.50977000000001 L 66.6075 13.838770000000011 C 66.6075 11.841440000000011 66.46483 10.700100000000011 66.1795 10.414770000000011 L 66.1795 10.414770000000011 C 65.39483 9.558770000000012 65.0025 8.863100000000012 65.0025 8.327770000000012 C 65.0025 7.7931000000000115 65.3235 7.079770000000011 65.96549999999999 6.187770000000011 C 66.60749999999999 5.296440000000011 66.92849999999999 4.636770000000011 66.92849999999999 4.208770000000011 L 66.92849999999999 4.208770000000011 L 66.92849999999999 1.212770000000011 C 66.92849999999999 -4.850559999999989 66.82149999999999 -8.488559999999989 66.60749999999999 -9.701229999999988 L 66.60749999999999 -9.701229999999988 L 66.60749999999999 -9.808229999999988 C 66.60749999999999 -10.236229999999988 67.17817 -10.699899999999987 68.31949999999999 -11.199229999999988 C 69.46082999999999 -11.698559999999988 70.28116999999999 -12.215899999999987 70.78049999999999 -12.751229999999987 C 71.27982999999999 -13.285899999999987 72.3855 -13.963559999999987 74.0975 -14.784229999999987 C 75.8095 -15.604229999999987 77.09349999999999 -16.014229999999987 77.9495 -16.014229999999987 L 77.9495 -16.014229999999987 C 83.5135 -15.229559999999987 86.2955 -14.088229999999987 86.2955 -12.590229999999988 L 86.2955 -12.590229999999988 C 86.2955 -12.518899999999988 86.15283000000001 -12.180229999999987 85.8675 -11.574229999999988 C 85.58217 -10.967559999999988 85.26117 -9.647899999999987 84.90450000000001 -7.615229999999988 C 84.54783000000002 -5.5818999999999885 84.36950000000002 -3.584559999999988 84.36950000000002 -1.623229999999988 C 84.36950000000002 0.338770000000012 84.51217000000001 1.462440000000012 84.79750000000001 1.747770000000012 C 85.08283000000002 2.033100000000012 85.22550000000001 2.746440000000012 85.22550000000001 3.887770000000012 z M 116.3625 7.63277 L 116.3625 7.63277 L 116.2555 0.46377000000000024 C 116.2555 -0.8202299999999998 116.29117 -1.6405599999999998 116.3625 -1.9972299999999996 L 116.3625 -1.9972299999999996 L 116.3625 -2.10423 C 116.3625 -2.31823 116.18417 -2.42523 115.8275 -2.42523 C 115.47083 -2.42523 114.68617 -2.06856 113.4735 -1.35523 C 112.26083 -0.6418999999999999 111.52983 -0.16056000000000004 111.2805 0.08877000000000002 C 111.0305 0.33877 110.78083000000001 1.2127700000000001 110.53150000000001 2.71077 C 110.28150000000001 4.20877 110.15650000000001 5.36777 110.15650000000001 6.18777 C 110.15650000000001 7.00844 110.19217 7.5257700000000005 110.26350000000001 7.73977 L 110.26350000000001 7.73977 L 110.26350000000001 7.9537700000000005 C 110.26350000000001 8.2391 109.85350000000001 8.863100000000001 109.0335 9.82577 C 108.21283 10.789100000000001 107.80250000000001 11.7701 107.80250000000001 12.76877 C 107.80250000000001 13.76744 108.05217 14.51644 108.5515 15.01577 C 109.05083 15.5151 109.3005 15.978769999999999 109.3005 16.40677 L 109.3005 16.40677 C 109.01517 17.833440000000003 108.8725 19.2421 108.8725 20.63277 C 108.8725 22.0241 109.12217 22.96944 109.6215 23.46877 L 109.6215 23.46877 C 111.04817 24.68144 112.04683 25.28777 112.61749999999999 25.28777 C 113.18817 25.28777 114.0085 24.34244 115.07849999999999 22.45177 C 116.14849999999998 20.56177 116.6835 19.33144 116.6835 18.76077 C 116.6835 18.1901 116.30917 17.60144 115.56049999999999 16.994770000000003 C 114.81116999999999 16.38877 114.4365 15.978770000000003 114.4365 15.764770000000002 L 114.4365 15.764770000000002 L 115.8275 12.126770000000002 C 116.18417 11.770100000000003 116.3625 10.272100000000002 116.3625 7.6327700000000025 z M 136.7465 44.54777 C 136.21117 44.8331 135.56916999999999 45.17177 134.8205 45.56377 C 134.07117000000002 45.95644 133.48250000000002 46.366769999999995 133.05450000000002 46.79477 L 133.05450000000002 46.79477 C 132.19850000000002 47.65077 130.55783000000002 48.29277 128.13250000000002 48.72077 L 128.13250000000002 48.72077 L 126.84850000000002 48.93477 L 119.25150000000002 47.43677 C 117.89617000000003 46.08144 116.68350000000002 44.405100000000004 115.61350000000002 42.40777 L 115.61350000000002 42.40777 L 115.07850000000002 41.33777 C 115.72050000000002 39.83977 116.25550000000003 37.9851 116.68350000000002 35.77377 L 116.68350000000002 35.77377 L 116.89750000000002 34.59677 C 116.68350000000002 34.38277 116.36250000000003 34.27577 115.93450000000003 34.27577 L 115.93450000000003 34.27577 C 115.07850000000003 34.27577 113.97283000000003 34.8821 112.61750000000004 36.094770000000004 L 112.61750000000004 36.094770000000004 C 112.40350000000004 36.30877 112.08250000000004 37.1291 111.65450000000004 38.55577 L 111.65450000000004 38.55577 C 110.44183000000004 42.6931 109.62150000000004 44.761770000000006 109.19350000000004 44.761770000000006 L 109.19350000000004 44.761770000000006 C 104.05750000000005 44.761770000000006 100.63350000000004 44.44077000000001 98.92150000000004 43.798770000000005 L 98.92150000000004 43.798770000000005 C 98.20817000000004 43.51344 96.35350000000004 41.444770000000005 93.35750000000004 37.59277 L 93.35750000000004 37.59277 L 91.85950000000004 35.66677 L 90.57550000000003 29.56777 L 91.96650000000004 28.60477 C 92.82250000000003 27.96277 93.25050000000005 27.42777 93.25050000000005 26.999769999999998 L 93.25050000000005 26.999769999999998 C 93.25050000000005 26.2151 92.32317000000005 25.323439999999998 90.46850000000005 24.324769999999997 L 90.46850000000005 24.324769999999997 C 90.11183000000005 23.968099999999996 89.93350000000005 22.541439999999998 89.93350000000005 20.044769999999996 L 89.93350000000005 20.044769999999996 L 90.04050000000005 15.764769999999995 L 91.53850000000006 14.801769999999996 C 92.46583000000005 14.159769999999996 92.92950000000006 13.553439999999997 92.92950000000006 12.982769999999995 C 92.92950000000006 12.412099999999995 92.57283000000007 11.752099999999995 91.85950000000007 11.002769999999995 C 91.14617000000007 10.254099999999994 90.78950000000007 9.737099999999995 90.78950000000007 9.451769999999994 L 90.78950000000007 9.451769999999994 C 90.78950000000007 8.239099999999995 91.28883000000008 5.849439999999994 92.28750000000008 2.282769999999995 C 93.28617000000008 -1.283900000000005 93.89250000000008 -3.156560000000005 94.10650000000008 -3.3352300000000055 C 94.32050000000008 -3.5132300000000054 95.69383000000008 -4.4762300000000055 98.22650000000009 -6.224230000000006 C 100.75850000000008 -7.9715600000000055 102.27417000000008 -9.094900000000006 102.77350000000008 -9.594230000000007 L 102.77350000000008 -9.594230000000007 C 104.84217000000008 -11.662900000000008 109.19350000000009 -12.697230000000006 115.82750000000009 -12.697230000000006 L 115.82750000000009 -12.697230000000006 C 116.18417000000008 -12.697230000000006 116.36250000000008 -14.230900000000007 116.36250000000008 -17.298230000000007 C 116.36250000000008 -20.36556000000001 116.14850000000008 -22.755230000000008 115.72050000000009 -24.467230000000008 L 115.72050000000009 -24.467230000000008 C 116.57650000000008 -24.89523000000001 117.00450000000009 -25.715560000000007 117.00450000000009 -26.928230000000006 L 117.00450000000009 -26.928230000000006 C 115.22117000000009 -31.992900000000006 114.3295000000001 -34.75723000000001 114.3295000000001 -35.221230000000006 C 114.3295000000001 -35.684560000000005 116.0951700000001 -36.89723000000001 119.62650000000009 -38.859230000000004 C 123.1571700000001 -40.82056 125.5645000000001 -41.801230000000004 126.84850000000009 -41.801230000000004 L 126.84850000000009 -41.801230000000004 C 133.26850000000007 -41.801230000000004 136.47850000000008 -41.480230000000006 136.47850000000008 -40.83823 L 136.47850000000008 -40.83823 C 135.47983000000008 -35.559560000000005 134.9805000000001 -31.814560000000004 134.9805000000001 -29.603230000000003 L 134.9805000000001 -29.603230000000003 C 132.62650000000008 -28.461900000000004 131.44950000000009 -27.267230000000005 131.44950000000009 -26.019230000000004 C 131.44950000000009 -24.770560000000003 132.1628300000001 -24.146230000000003 133.58950000000007 -24.146230000000003 L 133.58950000000007 -24.146230000000003 C 134.08883000000006 -24.146230000000003 134.37417000000008 -24.110560000000003 134.44550000000007 -24.039230000000003 C 134.51683000000006 -23.967900000000004 134.55250000000007 -23.611230000000003 134.55250000000007 -22.969230000000003 C 134.55250000000007 -22.327230000000004 134.26717000000008 -20.115900000000003 133.69650000000007 -16.335230000000003 C 133.12583000000006 -12.554560000000002 132.84050000000008 -9.986560000000003 132.84050000000008 -8.631230000000002 L 132.84050000000008 -8.631230000000002 C 133.69650000000007 -8.203230000000001 134.12450000000007 -7.810900000000002 134.12450000000007 -7.454230000000003 L 134.12450000000007 -7.454230000000003 C 133.69650000000007 -3.6735600000000024 133.48250000000007 0.5884399999999967 133.48250000000007 5.331769999999997 C 133.48250000000007 10.075769999999997 133.66083000000006 14.124099999999997 134.01750000000007 17.476769999999995 L 134.01750000000007 17.476769999999995 C 131.37817000000007 19.616769999999995 130.05850000000007 21.257439999999995 130.05850000000007 22.398769999999995 L 130.05850000000007 22.398769999999995 C 130.62917000000007 23.968099999999996 131.59217000000007 24.752769999999995 132.94750000000008 24.752769999999995 L 132.94750000000008 24.752769999999995 C 133.30417000000008 33.52676999999999 134.30283000000009 38.69843999999999 135.94350000000009 40.26777 L 135.94350000000009 40.26777 C 137.01350000000008 42.2651 137.54850000000008 43.406439999999996 137.54850000000008 43.69177 C 137.54850000000008 43.9771 137.2811700000001 44.26244 136.74650000000008 44.54777 z M 141.9355 -27.67723 L 141.9355 -27.67723 L 142.79149999999998 -33.56223 C 142.79149999999998 -33.9189 142.72017 -34.52523 142.5775 -35.38123 L 142.5775 -35.38123 L 142.5775 -35.48823 C 142.5775 -35.91623 143.00549999999998 -36.54056 143.86149999999998 -37.36123 C 144.71749999999997 -38.18123 146.16216999999997 -39.00156 148.19549999999998 -39.82223 C 150.22816999999998 -40.64223 152.49282999999997 -41.052229999999994 154.9895 -41.052229999999994 L 154.9895 -41.052229999999994 C 157.20083 -40.62423 158.3065 -40.16056 158.3065 -39.661229999999996 L 158.3065 -39.661229999999996 L 158.3065 -39.55423 C 157.94983 -38.127559999999995 157.7715 -36.84356 157.7715 -35.70223 C 157.7715 -34.560900000000004 157.8785 -33.88323 158.0925 -33.66923 C 158.3065 -33.45523 158.7345 -33.24123 159.3765 -33.027229999999996 C 160.0185 -32.81323 160.41083 -32.634899999999995 160.55349999999999 -32.49223 L 160.55349999999999 -32.49223 C 160.76749999999998 -31.564899999999998 160.87449999999998 -30.619899999999998 160.87449999999998 -29.65723 C 160.87449999999998 -28.6939 160.76749999999998 -27.89123 160.55349999999999 -27.249229999999997 C 160.3395 -26.607229999999998 159.35882999999998 -25.430229999999998 157.61149999999998 -23.71823 C 155.8635 -22.00623 154.70416999999998 -21.150229999999997 154.13349999999997 -21.150229999999997 L 154.13349999999997 -21.150229999999997 C 151.85082999999997 -21.150229999999997 149.71082999999996 -21.613899999999997 147.71349999999998 -22.54123 C 145.71616999999998 -23.46856 144.25383 -24.413899999999998 143.32649999999998 -25.377229999999997 C 142.39916999999997 -26.339899999999997 141.9355 -27.106559999999998 141.9355 -27.677229999999998 z M 159.6975 13.19677 L 159.6975 13.19677 L 159.1625 30.53077 C 159.1625 33.88344 159.34082999999998 35.9521 159.6975 36.73677 L 159.6975 36.73677 C 161.12417 39.87544 161.83749999999998 41.76577 161.83749999999998 42.40777 C 161.83749999999998 43.04977 161.80182999999997 43.406439999999996 161.73049999999998 43.47777 C 161.65917 43.5491 160.83882999999997 43.83444 159.26949999999997 44.33377 L 159.26949999999997 44.33377 C 154.20482999999996 46.1171 151.38716999999997 47.13344 150.81649999999996 47.38277 C 150.24582999999996 47.63277 149.47916999999995 47.75777 148.51649999999995 47.75777 C 147.55316999999994 47.75777 145.85882999999995 47.25844 143.43349999999995 46.25977 C 141.00816999999995 45.261100000000006 139.79549999999995 44.476440000000004 139.79549999999995 43.905770000000004 L 139.79549999999995 43.905770000000004 L 141.29349999999994 30.958770000000005 C 141.29349999999994 30.744770000000006 141.75716999999995 30.388100000000005 142.68449999999993 29.888770000000005 C 143.61182999999994 29.389440000000004 144.07549999999992 28.890100000000004 144.07549999999992 28.390770000000003 C 144.07549999999992 27.891440000000003 143.5941699999999 27.285100000000003 142.63149999999993 26.571770000000004 C 141.66816999999992 25.858440000000005 141.18649999999994 25.430440000000004 141.18649999999994 25.287770000000005 L 141.18649999999994 25.287770000000005 L 141.18649999999994 25.180770000000006 C 141.61449999999994 23.540100000000006 141.82849999999993 21.257440000000006 141.82849999999993 18.332770000000007 L 141.82849999999993 18.332770000000007 L 141.07949999999994 5.599770000000007 C 141.07949999999994 5.457100000000007 141.32916999999995 5.100440000000007 141.82849999999993 4.529770000000006 C 142.32782999999992 3.9591000000000065 142.57749999999993 3.1387700000000063 142.57749999999993 2.0687700000000064 C 142.57749999999993 0.9987700000000064 142.16749999999993 -0.6242299999999936 141.34749999999994 -2.8002299999999933 C 140.52682999999993 -4.9755599999999935 140.11649999999995 -6.348559999999994 140.11649999999995 -6.9192299999999936 L 140.11649999999995 -6.9192299999999936 C 140.11649999999995 -7.3472299999999935 141.72149999999993 -8.559899999999994 144.93149999999994 -10.557229999999993 C 148.14149999999995 -12.554559999999993 150.38849999999994 -13.553229999999994 151.67249999999996 -13.553229999999994 L 151.67249999999996 -13.553229999999994 C 158.30649999999997 -13.267899999999994 161.62349999999995 -12.768559999999994 161.62349999999995 -12.055229999999995 L 161.62349999999995 -12.055229999999995 C 161.62349999999995 -10.699899999999994 161.21349999999995 -8.256899999999995 160.39349999999996 -4.726229999999995 C 159.57282999999995 -1.1948999999999947 159.16249999999997 1.1947700000000054 159.16249999999997 2.4427700000000048 C 159.16249999999997 3.6914400000000045 159.23382999999995 4.886440000000005 159.37649999999996 6.027770000000005 L 159.37649999999996 6.027770000000005 C 157.45049999999998 7.240440000000005 156.48749999999995 8.631440000000005 156.48749999999995 10.200770000000006 L 156.48749999999995 10.200770000000006 C 157.34349999999995 10.985440000000006 158.34216999999995 11.377770000000005 159.48349999999996 11.377770000000005 L 159.48349999999996 11.377770000000005 C 159.62616999999997 11.377770000000005 159.69749999999996 11.984100000000005 159.69749999999996 13.196770000000004 z M 170.2905 -0.07123 L 170.2905 -0.17823 L 169.5415 -1.8902299999999999 C 169.5415 -2.38956 171.20017 -4.1552299999999995 174.5175 -7.18723 C 177.83417 -10.21856 179.9205 -11.91256 180.7765 -12.26923 L 180.7765 -12.26923 C 186.19783 -13.41056 189.8715 -13.98123 191.7975 -13.98123 L 191.7975 -13.98123 C 192.0115 -13.98123 192.9745 -13.5889 194.68650000000002 -12.80423 C 196.3985 -12.01956 197.43283000000002 -11.5739 197.78950000000003 -11.46723 C 198.14617000000004 -11.359900000000001 198.82383000000004 -10.68223 199.82250000000002 -9.434230000000001 C 200.82117000000002 -8.18556 201.3205 -7.418560000000001 201.3205 -7.133230000000001 L 201.3205 -7.133230000000001 C 200.96383 -5.135900000000001 200.64283 -4.137230000000001 200.35750000000002 -4.137230000000001 L 200.35750000000002 -4.137230000000001 C 195.86350000000002 -3.9232300000000007 192.8675 -3.3882300000000005 191.36950000000002 -2.5322300000000006 L 191.36950000000002 -2.5322300000000006 C 190.65617 -2.175560000000001 189.2475 -0.8382300000000007 187.14350000000002 1.479769999999999 C 185.03883000000002 3.798439999999999 183.6835 5.581769999999999 183.07750000000001 6.829769999999998 C 182.47083 8.078439999999999 182.16750000000002 12.055439999999997 182.16750000000002 18.760769999999997 L 182.16750000000002 18.760769999999997 C 184.23617000000002 19.6881 185.27050000000003 20.72244 185.27050000000003 21.86377 L 185.27050000000003 21.86377 C 184.48583000000002 25.21644 184.09350000000003 27.12444 184.09350000000003 27.58777 C 184.09350000000003 28.051769999999998 184.37883000000002 28.8901 184.94950000000003 30.10277 C 185.52017000000004 31.31544 186.09083000000004 32.2071 186.66150000000002 32.77777 L 186.66150000000002 32.77777 C 187.7315 33.34844 188.6055 33.63377 189.2835 33.63377 C 189.96083000000002 33.63377 190.4065 33.52677 190.6205 33.31277 L 190.6205 33.31277 C 192.33249999999998 31.60077 193.1885 28.6761 193.1885 24.53877 L 193.1885 24.53877 C 193.1885 23.611439999999998 193.11717000000002 22.64844 192.9745 21.64977 L 192.9745 21.64977 C 191.69050000000001 20.4371 191.04850000000002 19.08177 191.04850000000002 17.58377 L 191.04850000000002 17.58377 C 191.04850000000002 17.369770000000003 191.36950000000002 16.95944 192.0115 16.35277 C 192.6535 15.74677 192.9745 15.0871 192.9745 14.37377 C 192.9745 13.660440000000001 192.68917000000002 12.875770000000001 192.1185 12.019770000000001 C 191.54783 11.163770000000001 190.97717 10.503770000000001 190.40650000000002 10.03977 C 189.83583000000002 9.576440000000002 189.55050000000003 9.27344 189.55050000000003 9.13077 L 189.55050000000003 9.13077 C 189.55050000000003 8.20344 190.67417000000003 6.49144 192.92150000000004 3.99477 C 195.16817000000003 1.4981 196.75517000000005 0.24976999999999983 197.68250000000003 0.24976999999999983 L 197.68250000000003 0.24976999999999983 L 199.18050000000002 0.24976999999999983 C 205.24383000000003 0.24976999999999983 208.27550000000002 0.6420999999999999 208.27550000000002 1.4267699999999999 L 208.27550000000002 1.4267699999999999 C 207.91883 3.3527699999999996 207.74050000000003 4.4584399999999995 207.74050000000003 4.74377 C 207.74050000000003 5.0291 208.38250000000002 6.38444 209.6665 8.80977 C 210.9505 11.235100000000001 211.5925 13.55344 211.5925 15.76477 L 211.5925 15.76477 C 209.73783 17.26277 208.8105 18.35044 208.8105 19.02777 C 208.8105 19.70577 209.16717 20.36577 209.88049999999998 21.00777 C 210.59383 21.64977 210.95049999999998 22.00644 210.95049999999998 22.07777 L 210.95049999999998 22.07777 C 210.95049999999998 22.71977 210.66517 24.1641 210.09449999999998 26.41077 C 209.52382999999998 28.658099999999997 209.2385 30.388099999999998 209.2385 31.60077 C 209.2385 32.81344 207.5265 35.13177 204.1025 38.55577 L 204.1025 38.55577 C 200.82117 41.69444 198.6455 43.26377 197.5755 43.26377 L 197.5755 43.26377 L 197.4685 43.26377 C 197.11183 42.97844 196.54117 42.835770000000004 195.75650000000002 42.835770000000004 L 195.75650000000002 42.835770000000004 L 194.57950000000002 42.94277 C 193.50950000000003 42.94277 192.72483000000003 43.6561 192.2255 45.082770000000004 L 192.2255 45.082770000000004 C 192.0115 45.72477000000001 191.77983 46.170440000000006 191.53050000000002 46.41977000000001 C 191.28050000000002 46.66977000000001 190.40650000000002 46.79477000000001 188.9085 46.79477000000001 L 188.9085 46.79477000000001 L 179.8135 46.045770000000005 C 178.03017 45.546440000000004 176.01517 44.33377 173.76850000000002 42.407770000000006 C 171.52117 40.481770000000004 170.3975 39.26910000000001 170.3975 38.76977000000001 L 170.3975 38.76977000000001 C 170.3975 38.698440000000005 170.75417000000002 38.21677000000001 171.4675 37.32477000000001 C 172.18083000000001 36.433440000000004 172.5375 35.773770000000006 172.5375 35.34577000000001 L 172.5375 35.34577000000001 C 172.5375 34.63244000000001 172.07383 33.95477000000001 171.1465 33.31277000000001 L 171.1465 33.31277000000001 L 167.4015 33.847770000000004 C 167.04483 33.847770000000004 166.6525 32.920440000000006 166.2245 31.065770000000004 L 166.2245 31.065770000000004 C 165.1545 27.071100000000005 164.61950000000002 21.578440000000004 164.61950000000002 14.587770000000003 L 164.61950000000002 14.587770000000003 C 164.61950000000002 13.589100000000002 165.43983000000003 11.021100000000002 167.08050000000003 6.883770000000003 C 168.72117000000003 2.7464400000000024 169.79117000000002 0.42810000000000326 170.29050000000004 -0.07122999999999724 z" stroke-linecap="round" />
</g>
</svg>